<svg width="133" height="96" viewBox="0 0 133 96" fill="none" xmlns="http://www.w3.org/2000/svg">
<path d="M9.02022 80.5526C8.93556 83.1432 6.49729 84.4301 4.39767 84.3115C2.09486 84.1761 1.62075 83.0924 1.11278 83.194C0.587877 83.2956 0.570945 84.1761 0.570945 84.1761H0.11377V79.0794H0.689471C0.689471 80.6372 1.4345 83.8036 4.38074 83.8036C5.87079 83.8036 6.90367 82.9062 7.03913 81.0944C7.12379 79.8753 6.22637 78.8255 3.65264 77.2677C2.28112 76.438 -0.0386224 75.3543 0.130702 72.4081C0.215364 69.4618 3.04308 68.9369 4.26221 68.9877C5.80306 69.0554 6.76821 70.0883 7.34391 70.0545C7.71642 69.9867 7.78415 69.0893 7.78415 69.0893H8.32599V73.5425H7.69949C7.69949 73.5425 7.64869 69.665 4.12675 69.5465C2.82296 69.4957 1.75621 70.9011 1.80701 71.917C1.92554 73.9997 4.07595 74.9479 4.88871 75.439C6.68355 76.4549 9.12181 77.691 9.02022 80.5864V80.5526Z" fill="white"/>
<path d="M26.596 79.8752C26.5452 81.8732 25.9187 83.5157 24.1578 83.5157H21.347C21.0422 83.5157 19.9754 83.3463 19.9754 82.0087C19.9754 80.671 19.9754 76.929 19.9754 76.929H21.1946C23.1757 76.929 23.1418 78.5037 23.1418 79.5704H23.6836V73.661H23.1249C23.1079 74.3383 23.2434 76.3363 21.1946 76.3363H20.0262V71.1889C20.0093 70.1729 20.6697 69.9359 21.0591 69.9359H23.599C25.7833 69.9359 25.9526 71.7984 26.0034 73.1869H26.7145V69.2755H16.2842V69.7496C16.2842 69.7496 17.9944 69.7158 18.0282 71.1889V82.0426C18.0621 83.4479 16.318 83.6681 16.318 83.6681V84.0575H27.104V79.8921H26.5791L26.596 79.8752Z" fill="white"/>
<path d="M113.899 83.7358V84.0575H108.6V83.6681C109.768 83.685 110.31 82.9569 110.31 82.0595C110.31 81.1621 110.344 71.4429 110.31 70.6301C110.276 69.5803 110.073 69.5295 109.666 68.9199L112.274 70.5962V82.0933C112.24 83.5157 113.307 83.7019 113.899 83.7188V83.7358Z" fill="white"/>
<path d="M132.44 84.0576V83.6851C132.034 83.6512 131.391 83.0924 131.086 82.4321C130.781 81.7717 126.294 69.8174 126.294 69.8174L123.382 69.1909C123.382 69.1909 124.059 69.5126 124.313 70.2577L124.702 71.3075C124.702 71.3075 120.893 81.2637 120.622 81.9749C120.283 82.8554 119.69 83.4988 118.945 83.6004V84.0745H123.178V83.6004C122.67 83.6004 120.842 83.6004 121.417 81.6024L122.552 78.5715H127.513C127.513 78.5715 128.681 81.45 128.851 82.2458C128.952 82.6691 128.851 83.7189 127.462 83.6851V84.0914H132.44V84.0576ZM122.806 77.928L125.024 72.1202L127.344 77.928H122.806Z" fill="white"/>
<path d="M47.1013 69.2925H43.0883V69.6989C43.0883 69.6989 44.8831 69.665 44.917 71.0704C44.917 71.3752 44.917 80.5864 44.917 80.5864L37.653 69.3094H34.0125V69.8682C34.6729 69.9359 35.7058 70.1391 35.7058 71.2058V82.1611C35.7058 83.6004 33.9956 83.5496 33.9956 83.5496V84.0914H38.0763V83.5665C38.0763 83.5665 36.3323 83.6342 36.3323 82.2119V70.918L44.8831 84.1083H45.425C45.425 84.1083 45.425 71.4768 45.425 71.0704C45.4419 69.8513 46.7796 69.6989 47.1013 69.6989V69.3263V69.2925Z" fill="white"/>
<path d="M66.15 69.2756H54.5005V73.8135H55.1439C55.1778 72.5774 55.1439 69.8682 57.887 69.8682H59.3262V82.8893L61.9507 84.5317C61.9507 84.5317 61.3581 83.8713 61.3581 83.211V69.8513H63.0514C65.5574 69.8513 65.6082 72.8653 65.6082 73.7966H66.15V69.2587V69.2756Z" fill="white"/>
<path d="M84.0816 69.2586V69.6481C83.1164 69.6819 82.4053 70.1052 82.4053 71.172V78.2836C82.4053 84.5825 78.5277 84.4639 77.5118 84.4639C76.4959 84.4639 72.6861 83.8205 72.6861 79.2487V70.3084C72.6861 69.8174 72.0596 68.8861 72.0596 68.8861L74.718 70.5624V79.3673C74.718 81.6362 75.7508 83.4649 77.5457 83.4649C80.8983 83.4649 81.8804 81.1452 81.8804 78.2836V71.1889C81.8804 70.0544 80.9491 69.7327 80.0178 69.6481V69.2586H84.0816Z" fill="white"/>
<path d="M104.4 83.7528C103.283 83.702 102.267 83.4311 101.285 82.1273C100.54 81.1452 97.6105 76.6581 97.6105 76.6581C99.3546 76.0824 100.438 74.5754 100.438 73.1701C100.438 70.8334 99.0667 69.2587 94.8506 69.2587H89.7539V69.7497C90.3973 69.6989 91.4641 70.0206 91.4641 71.1212C91.4641 72.188 91.4641 82.7538 91.4641 82.7538L93.9532 84.2947C93.9532 84.2947 93.4452 83.8205 93.4452 83.0247V77.0814H95.6972C95.6972 77.0814 98.2878 81.1283 99.0837 82.3813C99.8795 83.6343 100.997 84.0068 101.793 84.0068C103.232 84.0068 104.13 84.0407 104.299 84.0068C104.536 83.9729 104.57 83.8205 104.417 83.7528H104.4ZM95.494 76.5565H93.4621V71.0874C93.479 69.6989 95.0199 69.7836 95.5787 69.8174C98.1185 69.9698 98.4233 72.1202 98.4233 73.3224C98.4233 75.93 96.4591 76.5396 95.494 76.5735V76.5565Z" fill="white"/>
<path d="M48.1846 93.3196H33.4873V93.6074H48.1846V93.3196Z" fill="#D29847"/>
<path d="M99.0665 93.3196H84.3691V93.6074H99.0665V93.3196Z" fill="#D29847"/>
<path d="M65.4388 0.191284C65.0833 5.01702 63.6271 9.63957 61.1719 13.7372C63.3562 17.3946 64.7615 21.4584 65.2865 25.7254C65.8452 25.7254 66.7426 25.7254 67.2506 25.7254C67.7755 21.4584 69.1809 17.3946 71.3652 13.7372C68.91 9.63957 67.4538 5.03395 67.0982 0.191284C66.658 0.191284 66.0484 0.191284 65.4388 0.191284Z" fill="#D29847"/>
<path d="M49.0146 5.77902C46.4917 7.60772 44.2735 9.82586 42.4448 12.3488C44.3413 15.6167 47.8293 19.071 50.42 20.7981C52.3672 19.4265 55.432 16.7682 57.4808 13.7373C54.9748 10.2153 51.7407 7.3368 49.0315 5.76208L49.0146 5.77902Z" fill="#D29847"/>
<path d="M59.225 10.8587C60.9182 7.64159 61.968 4.11965 62.3067 0.445312C58.5646 0.953285 55.0596 2.15549 51.9102 3.91646C54.9919 5.96528 57.7518 8.92845 59.225 10.8587Z" fill="#D29847"/>
<path d="M62.1032 25.4375C61.646 22.3389 60.6639 19.3588 59.2247 16.6157C58.2595 17.9195 55.4488 20.9674 53.2983 22.5421C56.0414 23.9983 59.0215 24.9634 62.1201 25.4206L62.1032 25.4375Z" fill="#D29847"/>
<path d="M47.5414 22.5421C44.7644 20.4933 42.0553 17.4454 40.5991 15.2273C38.8381 18.3767 37.619 21.8987 37.1279 25.6238C40.8023 25.2851 44.3242 24.2353 47.5414 22.5421Z" fill="#D29847"/>
<path d="M36.874 30.4326C41.6998 30.7881 46.3223 32.2443 50.42 34.6995C54.0774 32.5153 58.1411 31.1099 62.4081 30.585C62.4081 30.0262 62.4081 29.1288 62.4081 28.6208C58.1411 28.0959 54.0774 26.6905 50.42 24.5062C46.3223 26.9614 41.7167 28.4176 36.874 28.7732C36.874 29.2134 36.874 29.823 36.874 30.4326Z" fill="#D29847"/>
<path d="M42.4447 46.857C44.2734 49.3799 46.4915 51.598 49.0144 53.4267C52.2824 51.5303 55.7366 48.0422 57.4637 45.4516C56.0922 43.5043 53.4338 40.4396 50.4029 38.3907C46.864 40.8967 44.0024 44.1308 42.4277 46.84L42.4447 46.857Z" fill="#D29847"/>
<path d="M47.5414 36.6468C44.3242 34.9535 40.8023 33.9037 37.1279 33.5651C37.6359 37.3071 38.8381 40.8121 40.5991 43.9616C42.6479 40.8799 45.6111 38.1199 47.5414 36.6468Z" fill="#D29847"/>
<path d="M62.1201 33.7683C59.0215 34.2254 56.0414 35.2075 53.2983 36.6468C54.6021 37.6119 57.65 40.4227 59.2247 42.5731C60.6809 39.8301 61.646 36.85 62.1032 33.7513L62.1201 33.7683Z" fill="#D29847"/>
<path d="M59.225 48.3301C57.1761 51.107 54.1283 53.8162 51.9102 55.2724C55.0596 57.0333 58.5815 58.2525 62.3067 58.7435C61.968 55.0692 60.9182 51.5472 59.225 48.3301Z" fill="#D29847"/>
<path d="M67.1153 58.9976C67.4709 54.1718 68.9271 49.5493 71.3823 45.4516C69.198 41.7942 67.7926 37.7305 67.2677 33.4635C66.7089 33.4635 65.8115 33.4635 65.3035 33.4635C64.7786 37.7305 63.3732 41.7942 61.189 45.4516C63.6442 49.5493 65.1004 54.1549 65.4559 58.9976C65.8962 58.9976 66.5057 58.9976 67.1153 58.9976Z" fill="#D29847"/>
<path d="M83.5399 53.4268C86.0629 51.5981 88.281 49.3799 90.1097 46.857C88.2133 43.589 84.7252 40.1348 82.1345 38.4077C80.1873 39.7792 77.1226 42.4376 75.0737 45.4685C77.5797 48.9905 80.8138 51.869 83.523 53.4437L83.5399 53.4268Z" fill="#D29847"/>
<path d="M73.3297 48.3302C71.6365 51.5474 70.5867 55.0693 70.248 58.7436C73.9901 58.2357 77.4951 57.0335 80.6445 55.2725C77.5628 53.2237 74.8029 50.2605 73.3297 48.3302Z" fill="#D29847"/>
<path d="M70.451 33.7513C70.9082 36.85 71.8903 39.8301 73.3295 42.5731C74.2947 41.2693 77.1055 38.2215 79.2559 36.6468C76.5128 35.1906 73.5327 34.2254 70.4341 33.7683L70.451 33.7513Z" fill="#D29847"/>
<path d="M85.0127 36.6468C87.7896 38.6956 90.4988 41.7434 91.955 43.9616C93.716 40.8121 94.9351 37.2902 95.4261 33.5651C91.7518 33.9037 88.2299 34.9535 85.0127 36.6468Z" fill="#D29847"/>
<path d="M95.6801 28.7563C90.8543 28.4008 86.2318 26.9446 82.1341 24.4894C78.4767 26.6737 74.413 28.0791 70.146 28.604C70.146 29.1627 70.146 30.0601 70.146 30.5681C74.413 31.093 78.4767 32.4984 82.1341 34.6827C86.2318 32.2275 90.8374 30.7713 95.6801 30.4157C95.6801 29.9755 95.6801 29.3659 95.6801 28.7563Z" fill="#D29847"/>
<path d="M90.0923 12.3319C88.2636 9.80893 86.0454 7.59079 83.5225 5.76208C80.2546 7.65852 76.8003 11.1466 75.0732 13.7373C76.4448 15.6845 79.1032 18.7492 82.1341 20.7981C85.656 18.2921 88.5345 15.058 90.1092 12.3488L90.0923 12.3319Z" fill="#D29847"/>
<path d="M85.0127 22.5421C88.2299 24.2353 91.7518 25.2851 95.4261 25.6238C94.9182 21.8817 93.716 18.3767 91.955 15.2273C89.9062 18.309 86.943 21.069 85.0127 22.5421Z" fill="#D29847"/>
<path d="M70.4341 25.4206C73.5327 24.9634 76.5128 23.9813 79.2559 22.5421C77.9521 21.5769 74.9042 18.7661 73.3295 16.6157C71.8733 19.3588 70.9082 22.3389 70.451 25.4375L70.4341 25.4206Z" fill="#D29847"/>
<path d="M73.3297 10.8587C75.3786 8.08183 78.4264 5.37264 80.6445 3.91646C77.4951 2.15549 73.9732 0.936352 70.248 0.445312C70.5867 4.11965 71.6365 7.64159 73.3297 10.8587Z" fill="#D29847"/>
<path d="M54.6188 94.5726H52.7054L52.2652 95.741H51.6387L53.3996 91.1862H53.9245L55.6517 95.741H55.0252L54.6018 94.5726H54.6188ZM52.9086 94.0477H54.4495L53.7044 91.965H53.6875L52.9255 94.0477H52.9086Z" fill="#D29847"/>
<path d="M61.0364 95.741H60.4268L58.2256 92.219H58.2087V95.741H57.5991V91.1862H58.2087L60.4099 94.7081H60.4268V91.1862H61.0364V95.741Z" fill="#D29847"/>
<path d="M66.9455 93.9123V95.741H66.3359V91.1862H68.08C68.571 91.1862 68.9435 91.3047 69.2144 91.5587C69.4854 91.8126 69.6208 92.1344 69.6208 92.5408C69.6208 92.9471 69.4854 93.2858 69.2144 93.5398C68.9435 93.7937 68.571 93.9123 68.08 93.9123H66.9455ZM66.9455 93.4212H68.08C68.3848 93.4212 68.6218 93.3366 68.7742 93.1672C68.9266 92.9979 69.0113 92.7947 69.0113 92.5408C69.0113 92.2868 68.9266 92.0836 68.7742 91.9142C68.6218 91.7449 68.3848 91.6603 68.08 91.6603H66.9455V93.4212Z" fill="#D29847"/>
<path d="M75.158 95.741H74.5484V93.726H72.3303V95.741H71.7207V91.1862H72.3303V93.2519H74.5484V91.1862H75.158V95.741Z" fill="#D29847"/>
<path d="M80.8981 91.1862V94.2848C80.8981 94.7758 80.7287 95.1653 80.407 95.4193C80.0853 95.6902 79.662 95.8087 79.1371 95.8087C78.6122 95.8087 78.2227 95.6732 77.918 95.4193C77.6132 95.1483 77.4438 94.7758 77.4438 94.2848V91.1862H78.0534V94.2678C78.0534 94.6065 78.155 94.8774 78.3413 95.0467C78.5445 95.233 78.7984 95.3177 79.1202 95.3177C79.4419 95.3177 79.7297 95.233 79.9329 95.0467C80.1361 94.8605 80.2377 94.6065 80.2377 94.2678V91.1862H80.8473H80.8981Z" fill="#D29847"/>
</svg>
