<?xml version="1.0" encoding="UTF-8"?>
<svg id="Layer_1" xmlns="http://www.w3.org/2000/svg" version="1.1" viewBox="0 0 545.5 147.2">
  <!-- Generator: Adobe Illustrator 29.8.1, SVG Export Plug-In . SVG Version: 2.1.1 Build 2)  -->
  <defs>
    <style>
      .st0 {
        fill: #d29847;
      }

      .st1 {
        fill: #343741;
      }
    </style>
  </defs>
  <g>
    <path class="st1" d="M217.6,69.6c-.2,5.9-5.8,8.9-10.6,8.6-5.3-.3-6.4-2.8-7.6-2.6-1.2.2-1.3,2.3-1.3,2.3h-1s0-11.7,0-11.7h1.3c0,3.6,1.7,10.9,8.5,10.9,3.4,0,5.8-2.1,6.1-6.2.2-2.8-1.9-5.2-7.8-8.8-3.2-1.9-8.5-4.4-8.1-11.2.2-6.8,6.7-8,9.5-7.9,3.5.1,5.8,2.5,7.1,2.4.9-.2,1-2.2,1-2.2h1.2v10.2h-1.5s-.1-8.9-8.2-9.2c-3-.1-5.5,3.1-5.3,5.4.3,4.8,5.2,7,7.1,8.1,4.1,2.3,9.7,5.2,9.5,11.8Z"/>
    <path class="st1" d="M258.1,68c-.1,4.6-1.6,8.4-5.6,8.4h-6.5c-.7,0-3.2-.4-3.2-3.5s0-11.7,0-11.7h2.8c4.5,0,4.5,3.6,4.5,6.1h1.3s0-13.6,0-13.6h-1.3c0,1.6.3,6.1-4.4,6.1h-2.7v-11.9c0-2.4,1.5-2.9,2.4-2.9h5.8c5,0,5.4,4.3,5.5,7.5h1.6v-9h-24v1.1s3.9,0,4,3.3v25c0,3.2-3.9,3.7-3.9,3.7v.9h24.8v-9.6h-1.2Z"/>
    <path class="st1" d="M459,76.9v.7h-12.2v-.9c2.7,0,3.9-1.6,3.9-3.7s0-24.4,0-26.3c0-2.4-.5-2.5-1.5-3.9l6,3.9v26.5c0,3.3,2.4,3.7,3.8,3.8Z"/>
    <path class="st1" d="M501.7,77.6v-.8c-.9,0-2.4-1.3-3.1-2.9-.7-1.5-11-29-11-29l-6.7-1.5s1.6.7,2.1,2.4l.9,2.4s-8.8,22.9-9.4,24.5c-.8,2-2.1,3.5-3.8,3.7v1.1h9.8v-1.1c-1.2,0-5.4,0-4-4.6l2.6-7h11.4s2.7,6.6,3.1,8.4c.2,1,0,3.4-3.2,3.3v.9h11.5ZM479.5,63.5l5.1-13.4,5.3,13.4h-10.5Z"/>
    <path class="st1" d="M305.3,43.7h-9.2v.9s4.1,0,4.2,3.1c0,.7,0,21.9,0,21.9l-16.7-26h-8.4v1.3c1.5.2,3.9.6,3.9,3.1v25.2c0,3.3-4,3.2-4,3.2v1.2s9.4,0,9.4,0v-1.2s-4,.2-4-3.1v-26l19.7,30.3h1.2s0-29.1,0-30c0-2.8,3.1-3.1,3.9-3.2h0v-.9Z"/>
    <path class="st1" d="M349.1,43.6h-26.8v10.4h1.5c0-2.9,0-9.1,6.3-9.1h3.3v30l6,3.8s-1.4-1.5-1.4-3v-30.7h3.9c5.8,0,5.9,6.9,5.9,9.1h1.2v-10.4Z"/>
    <path class="st1" d="M390.4,43.6v.9c-2.2,0-3.8,1-3.8,3.5v16.4c0,14.5-8.9,14.2-11.3,14.2s-11.1-1.5-11.1-12v-20.6c0-1.1-1.4-3.3-1.4-3.3l6.1,3.9v20.3c0,5.2,2.4,9.4,6.5,9.4,7.7,0,10-5.3,10-11.9v-16.3c0-2.6-2.1-3.4-4.3-3.6v-.9h9.3Z"/>
    <path class="st1" d="M437.2,77h0c-2.6,0-4.9-.7-7.2-3.7-1.7-2.2-8.5-12.6-8.5-12.6,4-1.3,6.5-4.8,6.5-8,0-5.4-3.1-9-12.9-9h-11.7s0,1.1,0,1.1c1.5-.1,3.9.6,3.9,3.2,0,2.5,0,26.8,0,26.8l5.7,3.6s-1.2-1.1-1.2-2.9v-13.7h5.2s6,9.3,7.8,12.2c1.8,2.9,4.4,3.7,6.2,3.7,3.3,0,5.4,0,5.8,0,.6,0,.6-.4.3-.6ZM416.7,60.4h-4.7s0-12.6,0-12.6c0-3.2,3.6-3,4.9-2.9,5.8.4,6.5,5.3,6.5,8.1,0,6-4.5,7.4-6.8,7.5Z"/>
  </g>
  <g>
    <g>
      <path class="st0" d="M101,14.7c-.7,9.7-3.6,18.9-8.5,27.1,4.4,7.3,7.2,15.5,8.2,24,1.1,0,2.9,0,3.9,0,1.1-8.5,3.9-16.7,8.2-24-4.9-8.2-7.8-17.4-8.5-27.1-.9,0-2.1,0-3.3,0Z"/>
      <path class="st0" d="M68.1,25.9c-5.1,3.7-9.5,8.1-13.2,13.2,3.8,6.5,10.8,13.4,16,16.9,3.9-2.8,10-8.1,14.1-14.1-5-7.1-11.5-12.8-16.9-16Z"/>
      <path class="st0" d="M88.6,36.1c3.4-6.4,5.5-13.5,6.2-20.8-7.5,1-14.5,3.4-20.8,7,6.2,4.1,11.7,10,14.7,13.9Z"/>
      <path class="st0" d="M94.3,65.3c-.9-6.2-2.9-12.2-5.8-17.7-1.9,2.6-7.6,8.7-11.9,11.9,5.5,2.9,11.4,4.9,17.7,5.8Z"/>
    </g>
    <path class="st0" d="M65.2,59.5c-5.6-4.1-11-10.2-13.9-14.7-3.5,6.3-6,13.3-7,20.8,7.4-.7,14.4-2.8,20.8-6.2Z"/>
    <g>
      <path class="st0" d="M43.8,75.3c9.7.7,18.9,3.6,27.1,8.5,7.3-4.4,15.5-7.2,24-8.2,0-1.1,0-2.9,0-3.9-8.5-1.1-16.7-3.9-24-8.2-8.2,4.9-17.4,7.8-27.1,8.5,0,.9,0,2.1,0,3.3Z"/>
      <path class="st0" d="M55,108.2c3.7,5.1,8.1,9.5,13.2,13.2,6.5-3.8,13.4-10.8,16.9-16-2.8-3.9-8.1-10-14.1-14.1-7.1,5-12.8,11.5-16,16.9Z"/>
      <path class="st0" d="M65.2,87.7c-6.4-3.4-13.5-5.5-20.8-6.2,1,7.5,3.4,14.5,7,20.8,4.1-6.2,10-11.7,13.9-14.7Z"/>
      <path class="st0" d="M94.3,82c-6.2.9-12.2,2.9-17.7,5.8,2.6,1.9,8.7,7.6,11.9,11.9,2.9-5.5,4.9-11.4,5.8-17.7Z"/>
    </g>
    <path class="st0" d="M88.6,111.1c-4.1,5.6-10.2,11-14.7,13.9,6.3,3.5,13.3,6,20.8,7-.7-7.4-2.8-14.4-6.2-20.8Z"/>
    <g>
      <path class="st0" d="M104.4,132.5c.7-9.7,3.6-18.9,8.5-27.1-4.4-7.3-7.2-15.5-8.2-24-1.1,0-2.9,0-3.9,0-1.1,8.5-3.9,16.7-8.2,24,4.9,8.2,7.8,17.4,8.5,27.1.9,0,2.1,0,3.3,0Z"/>
      <path class="st0" d="M137.2,121.3c5.1-3.7,9.5-8.1,13.2-13.2-3.8-6.5-10.8-13.4-16-16.9-3.9,2.8-10,8.1-14.1,14.1,5,7.1,11.5,12.8,16.9,16Z"/>
      <path class="st0" d="M116.8,111.1c-3.4,6.4-5.5,13.5-6.2,20.8,7.5-1,14.5-3.4,20.8-7-6.2-4.1-11.7-10-14.7-13.9Z"/>
      <path class="st0" d="M111,81.9c.9,6.2,2.9,12.2,5.8,17.7,1.9-2.6,7.6-8.7,11.9-11.9-5.5-2.9-11.4-4.9-17.7-5.8Z"/>
    </g>
    <path class="st0" d="M140.2,87.7c5.6,4.1,11,10.2,13.9,14.7,3.5-6.3,6-13.3,7-20.8-7.4.7-14.4,2.8-20.8,6.2Z"/>
    <g>
      <path class="st0" d="M161.6,71.9c-9.7-.7-18.9-3.6-27.1-8.5-7.3,4.4-15.5,7.2-24,8.2,0,1.1,0,2.9,0,3.9,8.5,1.1,16.7,3.9,24,8.2,8.2-4.9,17.4-7.8,27.1-8.5,0-.9,0-2.1,0-3.3Z"/>
      <path class="st0" d="M150.4,39c-3.7-5.1-8.1-9.5-13.2-13.2-6.5,3.8-13.4,10.8-16.9,16,2.8,3.9,8.1,10,14.1,14.1,7.1-5,12.8-11.5,16-16.9Z"/>
      <path class="st0" d="M140.2,59.5c6.4,3.4,13.5,5.5,20.8,6.2-1-7.5-3.4-14.5-7-20.8-4.1,6.2-10,11.7-13.9,14.7Z"/>
      <path class="st0" d="M111,65.3c6.2-.9,12.2-2.9,17.7-5.8-2.6-1.9-8.7-7.6-11.9-11.9-2.9,5.5-4.9,11.4-5.8,17.7Z"/>
    </g>
    <path class="st0" d="M116.8,36.1c4.1-5.6,10.2-11,14.7-13.9-6.3-3.5-13.3-6-20.8-7,.7,7.4,2.8,14.4,6.2,20.8Z"/>
  </g>
  <g>
    <g>
      <path class="st0" d="M316.5,106.7l5.2-12.4h1.8l5.2,12.4h-2.5l-1.3-3.2h-4.4l-1.4,3.2h-2.5ZM321.3,101.3h2.7l-1.3-3.8-1.3,3.8Z"/>
      <path class="st0" d="M330.8,106.7v-12.4h2.6l5.2,9.1v-9.1h2.3v12.4h-2.5l-5.2-9v9h-2.3Z"/>
      <path class="st0" d="M351.9,106.7h-2.3v-12.4h2.9c.3,0,.6,0,.8,0,.2,0,.4,0,.6,0,.1,0,.3,0,.4,0,.2,0,.3,0,.5.1.3,0,.7.2,1,.5.5.3.9.8,1.2,1.4.3.6.4,1.1.4,1.8s-.1,1.2-.4,1.8c-.3.6-.6,1-1.1,1.4-.3.3-.7.4-1.1.6-.2,0-.4,0-.5.1-.2,0-.4,0-.5,0-.3,0-.6,0-.8,0-.2,0-.5,0-.7,0h-.5v4.7ZM351.9,99.8h.9c.1,0,.2,0,.4,0,.2,0,.3,0,.3,0,0,0,.2,0,.3,0,0,0,.2,0,.3,0,.3-.1.6-.3.8-.6.2-.3.3-.6.3-1s-.1-.7-.3-.9c-.2-.3-.5-.4-.9-.5-.1,0-.2,0-.3,0,0,0-.2,0-.2,0h-.7s-.5,0-.5,0h-.4v3.2Z"/>
      <path class="st0" d="M359.8,106.7v-12.4h2.3v5h4.4v-5h2.3v12.4h-2.3v-5.2h-4.4v5.2h-2.3Z"/>
      <path class="st0" d="M372.1,94.3h2.3v8.1c0,.2,0,.3,0,.4,0,.1,0,.3,0,.4,0,.2,0,.3.2.5.2.3.4.6.7.8.3.2.6.3,1,.3s.6,0,.9-.2c.3-.1.5-.4.7-.6.1-.2.2-.5.3-.9,0-.2,0-.6,0-1v-7.7h2.3v7.7c0,.7,0,1.3-.1,1.8-.1.6-.4,1.1-.8,1.6-.4.5-.9.9-1.5,1.2-.6.3-1.2.5-1.8.5s-1.1-.1-1.7-.4c-.6-.3-1.1-.6-1.5-1.1-.4-.5-.7-1-.8-1.6,0-.2,0-.5-.1-.8,0-.3,0-.6,0-1v-7.7Z"/>
    </g>
    <g>
      <rect class="st0" x="262" y="100.7" width="27.1" height="1.3"/>
      <rect class="st0" x="409.7" y="100.7" width="27.1" height="1.3"/>
    </g>
  </g>
</svg>